HIERARCHY
ROOT Hips
{
	OFFSET 0.000000 0.000000 0.000000
	CHANNELS 6 Xposition Yposition Zposition Zrotation Yrotation Xrotation 
	JOINT LHipJoint
	{
		OFFSET 0.000000 0.000000 0.000000
		CHANNELS 3 Zrotation Yrotation Xrotation
		JOINT LeftUpLeg
		{
			OFFSET 1.363060 -1.794630 0.839290
			CHANNELS 3 Zrotation Yrotation Xrotation
			JOINT LeftLeg
			{
				OFFSET 2.448110 -6.726130 0.000000
				CHANNELS 3 Zrotation Yrotation Xrotation
				JOINT LeftFoot
				{
					OFFSET 2.562200 -7.039590 0.000000
					CHANNELS 3 Zrotation Yrotation Xrotation
					JOINT LeftToeBase
					{
						OFFSET 0.157640 -0.433110 2.322550
						CHANNELS 3 Zrotation Yrotation Xrotation
						End Site
						{
							OFFSET 0.000000 0.000000 0.000000
						}
					}
				}
			}
		}
	}
	JOINT RHipJoint
	{
		OFFSET 0.000000 0.000000 0.000000
		CHANNELS 3 Zrotation Yrotation Xrotation
		JOINT RightUpLeg
		{
			OFFSET -1.305520 -1.794630 0.839290
			CHANNELS 3 Zrotation Yrotation Xrotation
			JOINT RightLeg
			{
				OFFSET -2.542530 -6.985550 0.000000
				CHANNELS 3 Zrotation Yrotation Xrotation
				JOINT RightFoot
				{
					OFFSET -2.568260 -7.056230 0.000000
					CHANNELS 3 Zrotation Yrotation Xrotation
					JOINT RightToeBase
					{
						OFFSET -0.164730 -0.452590 2.363150
						CHANNELS 3 Zrotation Yrotation Xrotation
						End Site
						{
							OFFSET 0.000000 0.000000 0.000000
						}
					}
				}
			}
		}
	}
}
MOTION
Frames: 14
Frame Time: 0.008333
-1.044567 17.030993 -1.259257 7.681470 85.446449 16.182009 -11.710806 3.904843 -0.747819 -0.249092 10.565972 -2.384210 -0.413227 2.003878 33.667426 0.436489 -3.203619 12.901926 -1.210400 0.000000 -81.403500 8.187282 -1.333002 2.806141 15.614739 1.295756 -22.494038 3.111841 1.680757 -3.605784 -1.224256 -8.340448 5.143606 -2.995200 -0.000000 -11.888200
-0.887031 17.053214 -1.206306 2.824074 84.990317 11.396023 -11.865911 3.860070 -0.732643 0.445079 10.636313 -3.685428 -0.207221 2.127413 36.190665 0.577524 -3.778673 15.506198 -1.655400 -0.000000 -79.856701 8.038041 -1.388470 2.883046 16.133173 1.916788 -21.959037 3.192907 1.674734 -3.173685 -1.195512 -8.072188 4.569808 -2.834700 -0.000001 -9.922600
-0.733526 17.073584 -1.152055 -0.797766 84.522847 7.854228 -11.977667 3.788865 -0.706485 0.999900 10.554104 -5.026907 -0.024590 2.233833 38.730378 0.734696 -4.170266 17.924680 -2.064600 0.000001 -77.171400 7.917546 -1.429829 2.938364 16.629637 2.423116 -21.400759 3.267588 1.678478 -2.838300 -1.169174 -7.801481 3.965359 -2.671100 -0.000000 -8.060100
-0.584041 17.091855 -1.096866 -3.424729 84.061184 5.312978 -12.055689 3.695179 -0.672386 1.422462 10.333050 -6.401909 0.133502 2.328709 41.268144 0.895903 -4.305554 20.028580 -2.365400 0.000000 -73.499300 7.819348 -1.459276 2.973529 17.096076 2.820934 -20.802735 3.336140 1.695719 -2.633394 -1.144504 -7.536755 3.362358 -2.511900 -0.000000 -6.312700
-0.438280 17.107994 -1.041231 -5.359588 83.613568 3.469846 -12.108483 3.584116 -0.633155 1.735070 9.996197 -7.808164 0.270465 2.418322 43.781405 1.052644 -4.116862 21.722726 -2.488700 -0.000000 -69.219200 7.737472 -1.478233 2.992855 17.535219 3.127890 -20.153464 3.400308 1.730075 -2.585136 -1.120617 -7.284908 2.787465 -2.363200 -0.000000 -4.643500
-0.296098 17.122076 -0.985082 -6.684314 83.185285 2.236425 -12.140969 3.461178 -0.591579 1.940979 9.560825 -9.229088 0.392562 2.507289 46.239742 1.200724 -3.544727 22.945440 -2.378900 0.000000 -64.670100 7.671571 -1.487729 2.995244 17.933469 3.342607 -19.452802 3.459708 1.779599 -2.688725 -1.092701 -7.026602 2.261109 -2.222700 0.000000 -3.129300
-0.157026 17.134353 -0.928655 -7.560867 82.773611 1.449375 -12.158555 3.329887 -0.549458 2.059402 9.049423 -10.653268 0.506370 2.597983 48.612384 1.340569 -2.563545 23.674233 -2.013401 -0.000000 -60.270600 7.618970 -1.488974 2.983491 18.290728 3.480971 -18.702567 3.515258 1.843020 -2.936307 -1.058080 -6.752845 1.797286 -2.090400 -0.000000 -1.771200
-0.020674 17.145134 -0.872022 -8.079551 82.371757 1.016887 -12.165158 3.192576 -0.508047 2.105164 8.482579 -12.066703 0.616668 2.690555 50.868057 1.475004 -1.181052 23.908903 -1.403300 0.000000 -56.301500 7.577900 -1.483196 2.960131 18.604501 3.559165 -17.910674 3.567129 1.917116 -3.305606 -1.014365 -6.452470 1.402649 -1.964900 -0.000000 -0.584300
0.113440 17.154744 -0.815176 -8.296765 81.968862 0.881807 -12.163643 3.050628 -0.468405 2.091301 7.880771 -13.454530 0.725536 2.783540 52.975200 1.607887 0.561254 23.667789 -0.591900 0.000000 -52.938400 7.546730 -1.471640 2.928088 18.871985 3.596317 -17.089146 3.615042 1.997578 -3.764758 -0.960325 -6.117117 1.077035 178.155500 -0.000000 -0.416900
0.245666 17.163558 -0.758015 -8.249207 81.552044 1.007095 -12.156002 2.905111 -0.431446 2.029036 7.264761 -14.803739 0.832443 2.874747 54.905251 1.742054 2.587854 22.975096 0.349800 0.000001 -50.164500 7.523648 -1.455789 2.890737 19.091311 3.612613 -16.252346 3.658482 2.079558 -4.275502 -0.896016 -5.742013 0.812786 178.272800 -0.000000 -1.225900
0.376433 17.171875 -0.700548 -7.989072 81.106016 1.343673 -12.143513 2.756542 -0.397509 1.931755 6.654267 -16.106333 0.934691 2.961444 56.630727 1.879272 4.797793 21.872873 1.334000 0.000000 -47.929600 7.506102 -1.437003 2.853081 19.264953 3.634126 -15.415848 3.697183 2.159170 -4.801784 -0.823628 -5.331704 0.596230 178.387700 0.000000 -1.865800
0.505988 17.180023 -0.642628 -7.527379 80.618838 1.880808 -12.126475 2.606143 -0.366371 1.804582 6.063680 -17.351984 1.028369 3.040518 58.125772 2.019083 7.074908 20.415608 2.268900 0.000000 -46.084300 7.493030 -1.416940 2.817022 19.391384 3.673068 -14.595399 3.730507 2.231580 -5.302939 -0.744557 -4.884713 0.410224 178.502700 0.000000 -2.337500
0.634530 17.188147 -0.584183 -6.912025 80.072217 2.569660 -12.104893 2.457317 -0.334380 1.657694 5.507813 -18.537180 1.108485 3.109474 59.372252 2.158487 9.295167 18.671338 3.070500 -0.000000 -44.477100 7.473433 -1.403233 2.773746 19.492104 3.765279 -14.046478 3.757772 2.239677 -5.214146 -0.644404 -4.393588 -0.054629 178.617900 0.000000 -2.671500
0.762187 17.196410 -0.525144 -6.171817 79.461895 3.384709 -12.077964 2.310449 -0.300717 1.494567 4.989301 -19.659872 1.171225 3.165369 60.356245 2.292462 11.345445 16.722605 3.678099 -0.000000 -42.947600 7.450855 -1.394638 2.728378 19.562295 3.906060 -13.686714 3.779730 2.202231 -4.716651 -0.537190 -3.867579 -0.702728 178.734600 -0.000000 -2.895501
